# xmcd CD database file
#
# Track frame offsets:
#	150
#	11110
#	24732
#	38797
#	49890
#	61400
#	75065
#	90092
#	102937
#	116142
#	131385
#	157062
#	176617
#	200775
#
# Disc length: 2996 seconds
#
# Revision: 0
# Processed by: cddbd v1.4PL0 Copyright (c) Steve Scherf et al.
# Submitted via: CDex 1.50
#
DISCID=b10bb20e
DTITLE=Stan Getz - The Complete Recordings of the Stan Getz Quintet with Jimmy Raney Disc 3
DYEAR=1900
DGENRE=Jazz
TTITLE0=Lullaby Of Birdland
TTITLE1=Autumn Leaves
TTITLE2=Autumn Leaves ( Alt )
TTITLE3=Fools Rush In
TTITLE4=Fools Rush In ( Alt )
TTITLE5=These Foolish Things
TTITLE6=Thanks For The Memory
TTITLE7=How Deep Is The Ocean
TTITLE8=Hymn Of The Orient
TTITLE9=These Foolish Things ( Alt )
TTITLE10=Signal
TTITLE11=Lee
TTITLE12='Round Midnight
TTITLE13=Motion
EXTD=
EXTT0=
EXTT1=
EXTT2=
EXTT3=
EXTT4=
EXTT5=
EXTT6=
EXTT7=
EXTT8=
EXTT9=
EXTT10=
EXTT11=
EXTT12=
EXTT13=
PLAYORDER=
